<svg id="Слой_1" data-name="Слой 1" xmlns="http://www.w3.org/2000/svg" viewBox="0 0 125 324.07"><defs><style>.cls-1{fill:#574338;}.cls-2{fill:#725849;}.cls-3{fill:#fff;}.cls-4{fill:#3c3b3d;}.cls-5,.cls-7{fill:none;stroke-miterlimit:10;stroke-width:2px;}.cls-5{stroke:#fff;}.cls-6{fill:#ed5470;}.cls-7{stroke:gray;}</style></defs><rect class="cls-1" x="21.41" width="92.59" height="324.07" rx="43.17"/><rect class="cls-2" x="14" width="92.59" height="324.07" rx="43.17"/><ellipse cx="79.26" cy="39.7" rx="11.68" ry="11.44"/><ellipse class="cls-3" cx="74.42" cy="34.97" rx="4.43" ry="4.34"/><ellipse cx="47.8" cy="39.7" rx="11.68" ry="11.44"/><ellipse class="cls-3" cx="42.97" cy="34.97" rx="4.43" ry="4.34"/><path class="cls-4" d="M60.38,58l-9.6,9.66a3.82,3.82,0,0,1-5.43,0L35.74,58a3.86,3.86,0,0,1-.34-5.05H60.73A3.87,3.87,0,0,1,60.38,58Z" transform="translate(14)"/><line class="cls-5" x1="80.14" y1="55.33" x2="123.43" y2="44.32"/><line class="cls-5" x1="81.03" y1="57.74" x2="125" y2="57.74"/><line class="cls-5" x1="79.54" y1="60.1" x2="122.81" y2="71.23"/><line class="cls-5" x1="43.84" y1="55.33" x2="1.53" y2="44.32"/><line class="cls-5" x1="42.97" y1="57.74" y2="57.74"/><line class="cls-5" x1="44.44" y1="60.1" x2="2.14" y2="71.23"/><path class="cls-6" d="M65.87,72.26v6.39c0,7.65-8,13.85-17.83,13.85S30.21,86.3,30.21,78.65V72.26Z" transform="translate(14)"/><rect class="cls-3" x="52.3" y="72.26" width="18.87" height="22"/><line class="cls-7" x1="61.61" y1="72.26" x2="61.61" y2="94.26"/></svg>