<!-- Generator: Adobe Illustrator 25.2.0, SVG Export Plug-In . SVG Version: 6.00 Build 0)  -->
<svg id="Слой_1" xmlns="http://www.w3.org/2000/svg" viewBox="0 0 125 324.1"
     style="enable-background:new 0 0 125 324.1;">
    <style>
        .st0{fill:#574338;}
        .st1{fill:#725849;}
        .st2{fill:#3C3B3D;}
        .st3{fill:none;stroke:#FFFFFF;stroke-width:2;stroke-miterlimit:10;}
        .st4{fill:#ED5470;}
        .st5{fill:#FFFFFF;}
        .st6{fill:none;stroke:#808080;stroke-width:2;stroke-miterlimit:10;}
        .st7{fill:none;stroke:#000000;stroke-width:3;stroke-miterlimit:10;}
    </style>
    <path class="st0" d="M64.6,0h6.2C94.7,0,114,19.3,114,43.2v237.7c0,23.8-19.3,43.2-43.2,43.2h-6.2c-23.8,0-43.2-19.3-43.2-43.2V43.2
	C21.4,19.3,40.7,0,64.6,0z"/>
    <path class="st1" d="M57.2,0h6.2c23.8,0,43.2,19.3,43.2,43.2v237.7c0,23.8-19.3,43.2-43.2,43.2h-6.2c-23.8,0-43.2-19.3-43.2-43.2
	V43.2C14,19.3,33.3,0,57.2,0z"/>
    <path class="st2" d="M74.4,58l-9.6,9.7c-1.5,1.5-3.9,1.5-5.4,0c0,0,0,0,0,0L49.7,58c-1.4-1.4-1.5-3.5-0.3-5h25.3
	C75.9,54.5,75.7,56.6,74.4,58z"/>
    <line class="st3" x1="80.1" y1="55.3" x2="123.4" y2="44.3"/>
    <line class="st3" x1="81" y1="57.7" x2="125" y2="57.7"/>
    <line class="st3" x1="79.5" y1="60.1" x2="122.8" y2="71.2"/>
    <line class="st3" x1="43.8" y1="55.3" x2="1.5" y2="44.3"/>
    <line class="st3" x1="43" y1="57.7" x2="0" y2="57.7"/>
    <line class="st3" x1="44.4" y1="60.1" x2="2.1" y2="71.2"/>
    <path class="st4" d="M79.9,72.3v6.4c0,7.7-8,13.8-17.8,13.8s-17.8-6.2-17.8-13.8v-6.4H79.9z"/>
    <rect x="52.3" y="72.3" class="st5" width="10.2" height="22"/>
    <line class="st6" x1="61.6" y1="72.3" x2="61.6" y2="94.3"/>
    <g>
        <line class="st7" x1="73.8" y1="26.3" x2="87.2" y2="49.9"/>
        <line class="st7" x1="87.5" y1="30.9" x2="72.3" y2="48.8"/>
    </g>
    <g>
        <line class="st7" x1="38.6" y1="26.3" x2="51.9" y2="49.9"/>
        <line class="st7" x1="52.3" y1="30.9" x2="37.1" y2="48.8"/>
    </g>
</svg>
